<svg xmlns="http://www.w3.org/2000/svg" xmlns:v="https://svgstorm.com"
viewBox = "0 0 192 192"
width="192"
height="192">
<g fill="None" fill-opacity="0.0" stroke="#000000" stroke-opacity="0.00" stroke-width="0.3"><path d="
M 0.00 192.00 
L 192.00 192.00
L 192.00 0.00
L 0.00 0.00
L 0.00 192.00
M 143.00 46.00 
C 145.64 60.71 146.02 83.40 143.00 98.00
C 139.96 112.66 123.62 121.74 111.00 128.00
C 100.71 133.11 103.85 110.05 104.00 100.00 C 104.15 89.95 103.28 71.52 104.00 60.00 C 104.72 48.48 102.24 31.79 104.00 20.00
C 105.73 8.42 118.83 21.44 126.08 24.92 C 133.33 28.40 141.43 37.22 143.00 46.00
M 50.00 146.00 
C 48.97 141.82 49.00 136.83 49.00 132.00
C 49.00 110.68 48.57 89.31 49.00 68.00
C 49.05 65.31 49.49 63.06 50.00 61.00
C 53.94 45.11 73.05 39.07 85.00 30.00
C 87.33 78.17 85.33 127.42 86.00 176.00
C 72.89 169.58 54.35 161.57 50.00 146.00 Z"/>
</g>
<g fill="None" fill-opacity="0.0" stroke="#00A0DA" stroke-opacity="0.96" stroke-width="0.3"><path d="
M 104.00 20.00 
C 104.90 36.16 107.01 54.21 106.00 72.00 C 104.99 89.79 106.76 109.07 106.00 127.00
C 107.83 126.77 109.47 127.07 111.00 128.00
C 123.62 121.74 139.96 112.66 143.00 98.00
C 143.05 81.41 142.84 61.61 143.00 46.00
C 141.43 37.22 133.33 28.40 126.08 24.92 C 118.83 21.44 105.73 8.42 104.00 20.00 Z"/>
</g>
<g fill="None" fill-opacity="0.0" stroke="#14A7DD" stroke-opacity="0.55" stroke-width="0.3"><path d="
M 111.00 128.00 
C 109.47 127.07 107.83 126.77 106.00 127.00
C 106.76 109.07 104.99 89.79 106.00 72.00 C 107.01 54.21 104.90 36.16 104.00 20.00
C 102.24 31.79 104.72 48.48 104.00 60.00 C 103.28 71.52 104.15 89.95 104.00 100.00 C 103.85 110.05 100.71 133.11 111.00 128.00 Z"/>
</g>
<g fill="None" fill-opacity="0.0" stroke="#F08D02" stroke-opacity="0.93" stroke-width="0.3"><path d="
M 50.00 61.00 
C 49.80 62.92 50.44 65.13 50.00 67.00
C 52.04 88.02 52.03 113.05 50.00 134.00
C 50.49 137.94 49.51 142.06 50.00 146.00
C 54.35 161.57 72.89 169.58 86.00 176.00
C 85.33 127.42 87.33 78.17 85.00 30.00
C 73.05 39.07 53.94 45.11 50.00 61.00 Z"/>
</g>
<g fill="None" fill-opacity="0.0" stroke="#14A8DC" stroke-opacity="0.34" stroke-width="0.3"><path d="
M 143.00 98.00 
C 146.02 83.40 145.64 60.71 143.00 46.00
C 142.84 61.61 143.05 81.41 143.00 98.00 Z"/>
</g>
<g fill="None" fill-opacity="0.0" stroke="#F88503" stroke-opacity="0.03" stroke-width="0.3"><path d="
M 49.00 68.00 
C 49.05 67.77 49.92 67.35 50.00 67.00
C 50.44 65.13 49.80 62.92 50.00 61.00
C 49.49 63.06 49.05 65.31 49.00 68.00 Z"/>
</g>
<g fill="None" fill-opacity="0.0" stroke="#F29F2C" stroke-opacity="0.53" stroke-width="0.3"><path d="
M 49.00 68.00 
C 48.57 89.31 49.00 110.68 49.00 132.00
C 49.13 132.50 49.88 133.03 50.00 134.00
C 52.03 113.05 52.04 88.02 50.00 67.00
C 49.92 67.35 49.05 67.77 49.00 68.00 Z"/>
</g>
<g fill="None" fill-opacity="0.0" stroke="#F69C0D" stroke-opacity="0.05" stroke-width="0.3"><path d="
M 50.00 146.00 
C 49.51 142.06 50.49 137.94 50.00 134.00
C 49.88 133.03 49.13 132.50 49.00 132.00
C 49.00 136.83 48.97 141.82 50.00 146.00 Z"/>
</g>
<g fill="#000000" fill-opacity="0.00" stroke="None">
<path d="
M 0.00 192.00 
L 192.00 192.00
L 192.00 0.00
L 0.00 0.00
L 0.00 192.00
M 143.00 46.00 
C 145.64 60.71 146.02 83.40 143.00 98.00
C 139.96 112.66 123.62 121.74 111.00 128.00
C 100.71 133.11 103.85 110.05 104.00 100.00 C 104.15 89.95 103.28 71.52 104.00 60.00 C 104.72 48.48 102.24 31.79 104.00 20.00
C 105.73 8.42 118.83 21.44 126.08 24.92 C 133.33 28.40 141.43 37.22 143.00 46.00
M 50.00 146.00 
C 48.97 141.82 49.00 136.83 49.00 132.00
C 49.00 110.68 48.57 89.31 49.00 68.00
C 49.05 65.31 49.49 63.06 50.00 61.00
C 53.94 45.11 73.05 39.07 85.00 30.00
C 87.33 78.17 85.33 127.42 86.00 176.00
C 72.89 169.58 54.35 161.57 50.00 146.00 Z"/>
</g>
<g fill="#00A0DA" fill-opacity="0.96" stroke="None">
<path d="
M 104.00 20.00 
C 104.90 36.16 107.01 54.21 106.00 72.00 C 104.99 89.79 106.76 109.07 106.00 127.00
C 107.83 126.77 109.47 127.07 111.00 128.00
C 123.62 121.74 139.96 112.66 143.00 98.00
C 143.05 81.41 142.84 61.61 143.00 46.00
C 141.43 37.22 133.33 28.40 126.08 24.92 C 118.83 21.44 105.73 8.42 104.00 20.00 Z"/>
</g>
<g fill="#14A7DD" fill-opacity="0.55" stroke="None">
<path d="
M 111.00 128.00 
C 109.47 127.07 107.83 126.77 106.00 127.00
C 106.76 109.07 104.99 89.79 106.00 72.00 C 107.01 54.21 104.90 36.16 104.00 20.00
C 102.24 31.79 104.72 48.48 104.00 60.00 C 103.28 71.52 104.15 89.95 104.00 100.00 C 103.85 110.05 100.71 133.11 111.00 128.00 Z"/>
</g>
<g fill="#F08D02" fill-opacity="0.93" stroke="None">
<path d="
M 50.00 61.00 
C 49.80 62.92 50.44 65.13 50.00 67.00
C 52.04 88.02 52.03 113.05 50.00 134.00
C 50.49 137.94 49.51 142.06 50.00 146.00
C 54.35 161.57 72.89 169.58 86.00 176.00
C 85.33 127.42 87.33 78.17 85.00 30.00
C 73.05 39.07 53.94 45.11 50.00 61.00 Z"/>
</g>
<g fill="#14A8DC" fill-opacity="0.34" stroke="None">
<path d="
M 143.00 98.00 
C 146.02 83.40 145.64 60.71 143.00 46.00
C 142.84 61.61 143.05 81.41 143.00 98.00 Z"/>
</g>
<g fill="#F88503" fill-opacity="0.03" stroke="None">
<path d="
M 49.00 68.00 
C 49.05 67.77 49.92 67.35 50.00 67.00
C 50.44 65.13 49.80 62.92 50.00 61.00
C 49.49 63.06 49.05 65.31 49.00 68.00 Z"/>
</g>
<g fill="#F29F2C" fill-opacity="0.53" stroke="None">
<path d="
M 49.00 68.00 
C 48.57 89.31 49.00 110.68 49.00 132.00
C 49.13 132.50 49.88 133.03 50.00 134.00
C 52.03 113.05 52.04 88.02 50.00 67.00
C 49.92 67.35 49.05 67.77 49.00 68.00 Z"/>
</g>
<g fill="#F69C0D" fill-opacity="0.05" stroke="None">
<path d="
M 50.00 146.00 
C 49.51 142.06 50.49 137.94 50.00 134.00
C 49.88 133.03 49.13 132.50 49.00 132.00
C 49.00 136.83 48.97 141.82 50.00 146.00 Z"/>
</g>
</svg>